<?xml version="1.0" encoding="UTF-8"?>
<svg xmlns="http://www.w3.org/2000/svg" viewBox="0 0 30 20" width="30" height="20" aria-label="United Kingdom">
  <rect width="30" height="20" fill="#012169"/>
  <!-- White diagonals -->
  <path d="M0 0 L3 0 L30 17 L30 20 L27 20 L0 3 Z" fill="#FFFFFF"/>
  <path d="M30 0 L27 0 L0 17 L0 20 L3 20 L30 3 Z" fill="#FFFFFF"/>
  <!-- Red diagonals -->
  <path d="M0 0 L1.9 0 L30 16.6 L30 20 L28.1 20 L0 3.4 Z" fill="#C8102E"/>
  <path d="M30 0 L28.1 0 L0 16.6 L0 20 L1.9 20 L30 3.4 Z" fill="#C8102E"/>
  <!-- White cross -->
  <rect x="0" y="8" width="30" height="4" fill="#FFFFFF"/>
  <rect x="13" y="0" width="4" height="20" fill="#FFFFFF"/>
  <!-- Red cross -->
  <rect x="0" y="9" width="30" height="2" fill="#C8102E"/>
  <rect x="14" y="0" width="2" height="20" fill="#C8102E"/>
</svg>
